<svg xmlns="http://www.w3.org/2000/svg" viewBox="0 0 200 200" width="200" height="200">
  <!-- Cat Body -->
  <ellipse cx="100" cy="120" rx="50" ry="60" fill="#FF9E7A" stroke="#FF7043" stroke-width="2"/>

  <!-- Cat Head -->
  <circle cx="100" cy="70" r="40" fill="#FF9E7A" stroke="#FF7043" stroke-width="2"/>

  <!-- Left Ear -->
  <path d="M 70 50 L 60 20 L 80 45 Z" fill="#FF9E7A" stroke="#FF7043" stroke-width="2"/>
  <path d="M 70 45 L 65 30 L 75 42 Z" fill="#FFB4A1"/>

  <!-- Right Ear -->
  <path d="M 130 50 L 140 20 L 120 45 Z" fill="#FF9E7A" stroke="#FF7043" stroke-width="2"/>
  <path d="M 130 45 L 135 30 L 125 42 Z" fill="#FFB4A1"/>

  <!-- Left Eye -->
  <ellipse cx="85" cy="65" rx="8" ry="12" fill="#2D3436"/>
  <ellipse cx="87" cy="62" rx="3" ry="4" fill="#FFFFFF"/>

  <!-- Right Eye -->
  <ellipse cx="115" cy="65" rx="8" ry="12" fill="#2D3436"/>
  <ellipse cx="117" cy="62" rx="3" ry="4" fill="#FFFFFF"/>

  <!-- Nose -->
  <path d="M 100 78 L 95 85 L 100 83 L 105 85 Z" fill="#FF7043"/>

  <!-- Mouth -->
  <path d="M 100 83 Q 92 88 85 85" stroke="#FF7043" stroke-width="2" fill="none" stroke-linecap="round"/>
  <path d="M 100 83 Q 108 88 115 85" stroke="#FF7043" stroke-width="2" fill="none" stroke-linecap="round"/>

  <!-- Whiskers Left -->
  <line x1="60" y1="70" x2="30" y2="65" stroke="#2D3436" stroke-width="1.5" stroke-linecap="round"/>
  <line x1="60" y1="75" x2="30" y2="75" stroke="#2D3436" stroke-width="1.5" stroke-linecap="round"/>
  <line x1="60" y1="80" x2="30" y2="85" stroke="#2D3436" stroke-width="1.5" stroke-linecap="round"/>

  <!-- Whiskers Right -->
  <line x1="140" y1="70" x2="170" y2="65" stroke="#2D3436" stroke-width="1.5" stroke-linecap="round"/>
  <line x1="140" y1="75" x2="170" y2="75" stroke="#2D3436" stroke-width="1.5" stroke-linecap="round"/>
  <line x1="140" y1="80" x2="170" y2="85" stroke="#2D3436" stroke-width="1.5" stroke-linecap="round"/>

  <!-- Front Left Leg -->
  <rect x="75" y="160" width="15" height="35" rx="7" fill="#FF9E7A" stroke="#FF7043" stroke-width="2"/>

  <!-- Front Right Leg -->
  <rect x="110" y="160" width="15" height="35" rx="7" fill="#FF9E7A" stroke="#FF7043" stroke-width="2"/>

  <!-- Tail -->
  <path d="M 145 130 Q 170 120 175 95 Q 178 80 170 75" stroke="#FF7043" stroke-width="8" fill="none" stroke-linecap="round"/>

  <!-- Belly Spot -->
  <ellipse cx="100" cy="130" rx="25" ry="35" fill="#FFD1C1" opacity="0.6"/>
</svg>
